<?xml version="1.0" encoding="UTF-8"?>
<svg xmlns="http://www.w3.org/2000/svg" version="1.1" viewBox="0 0 600 600">
  <!-- Generator: Adobe Illustrator 30.2.1, SVG Export Plug-In . SVG Version: 2.1.1 Build 1)  -->
  <defs>
    <style>
      .st0 {
        fill: #040000;
      }

      .st1 {
        fill: #2ea7e0;
        font-family: MLBPhillies, 'MLB Phillies';
        font-size: 84.22px;
      }

      .st1, .st2, .st3 {
        display: none;
      }

      .st4 {
        fill: #fff;
      }

      .st2, .st5 {
        fill: #231815;
      }

      .st6 {
        fill: #2f9dd1;
      }
    </style>
  </defs>
  <g id="_レイヤー_1" data-name="レイヤー_1" class="st3">
    <rect class="st2" width="600" height="600"/>
    <text class="st1" transform="translate(107.6 580.85)"><tspan x="0" y="0">PLAYER</tspan></text>
    <g>
      <g>
        <polygon class="st6" points="356.38 385.18 459.89 281.68 353.88 281.68 250.37 385.18 356.38 385.18"/>
        <polygon class="st6" points="349.63 106.4 243.62 106.4 141.48 208.54 247.49 208.54 349.63 106.4"/>
        <polygon class="st6" points="386.39 106.4 290.43 202.35 284.25 208.54 211.11 281.68 170.05 322.73 107.6 385.18 213.61 385.18 242.07 356.72 317.12 281.68 390.25 208.54 492.4 106.4 386.39 106.4"/>
      </g>
      <path class="st6" d="M133.54,442.68c0-3.07-1.01-5.97-3.04-8.7-2.2-3.02-4.76-4.52-7.69-4.52h-11.74c-.96,0-1.77.34-2.45,1.02s-1.01,1.51-1.01,2.47v61.53c0,.91.34,1.71,1.01,2.39s1.49,1.02,2.45,1.02c.9,0,1.69-.34,2.37-1.02.68-.68,1.01-1.48,1.01-2.39v-28.5c.45,0,2.25-.03,5.41-.09,4.9,0,8.56-1.48,10.98-4.44,1.86-2.22,2.79-4.98,2.79-8.28,0-.62-.03-1.19-.08-1.71v-8.79ZM126.61,451.64v1.54c0,1.65-.39,2.96-1.17,3.93-1.06,1.25-2.94,1.88-5.66,1.88h-5.33v-22.62h7.8c2.91.85,4.36,2.96,4.36,6.31v8.96Z"/>
      <path class="st6" d="M200.96,491h-13.68v-58.03c0-.97-.34-1.79-1.01-2.47-.68-.68-1.47-1.02-2.37-1.02-.96,0-1.77.34-2.45,1.02s-1.01,1.51-1.01,2.47v61.45c0,.97.34,1.79,1.01,2.47s1.49,1.02,2.45,1.02h17.06c.9,0,1.69-.34,2.37-1.02s1.01-1.51,1.01-2.47c0-.91-.34-1.71-1.01-2.39s-1.46-1.02-2.37-1.02Z"/>
      <path class="st6" d="M269.4,432.43c-.28-1.93-1.35-2.93-3.21-2.99-1.92-.06-3.07.85-3.46,2.73l-12.33,61.36c-.17.97,0,1.83.51,2.6.51.77,1.21,1.27,2.11,1.49.96.17,1.82,0,2.58-.51.76-.51,1.25-1.25,1.48-2.22l1.35-6.66h11.91l.84,6.66c.17.97.63,1.74,1.39,2.3.76.57,1.59.8,2.49.68.96-.17,1.72-.62,2.28-1.37.56-.74.76-1.59.59-2.56l-8.53-61.53ZM259.77,481.41l5.66-28.25,3.89,28.25h-9.54Z"/>
      <path class="st6" d="M346.4,429.47c-1.69,0-2.76.8-3.21,2.39l-7.26,25.6-7.26-25.6c-.45-1.59-1.52-2.39-3.21-2.39-.9,0-1.68.33-2.32.98-.65.65-.97,1.44-.97,2.35,0,.29.06.6.17.94l10.31,36.36v24.49c0,.91.32,1.69.97,2.35.65.65,1.42.98,2.32.98s1.67-.33,2.32-.98c.65-.65.97-1.44.97-2.35v-24.49c.11-.28,3.55-12.4,10.31-36.36.11-.28.17-.6.17-.94,0-.91-.32-1.69-.97-2.35-.65-.65-1.42-.98-2.32-.98Z"/>
      <path class="st6" d="M415.6,436.38c.96,0,1.77-.34,2.45-1.02s1.01-1.51,1.01-2.47c0-.91-.34-1.71-1.01-2.39s-1.49-1.02-2.45-1.02h-15.88c-.9,0-1.69.34-2.37,1.02s-1.01,1.48-1.01,2.39v61.62c0,.91.34,1.71,1.01,2.39s1.46,1.02,2.37,1.02h15.71c.96,0,1.77-.34,2.45-1.02s1.01-1.48,1.01-2.39c0-.97-.34-1.79-1.01-2.47s-1.49-1.02-2.45-1.02h-12.25v-22.53h10.39c.96,0,1.77-.34,2.45-1.02s1.01-1.48,1.01-2.39c0-.97-.34-1.79-1.01-2.47s-1.49-1.02-2.45-1.02h-10.39v-25.17h12.42Z"/>
      <path class="st6" d="M492.4,453.11v-10.5c0-8.76-3.58-13.14-10.73-13.14h-11.74c-.9,0-1.69.34-2.37,1.03-.68.69-1.01,1.48-1.01,2.4v61.51c0,.97.34,1.8,1.01,2.48s1.46,1.03,2.37,1.03c.96,0,1.77-.34,2.45-1.03.68-.69,1.01-1.51,1.01-2.49v-28.49c3.08,0,4.31-.03,3.68-.08,3.31.11,5.68.8,7.11,2.05.63.57.94,1.28.94,2.13l.43,24.32c0,.97.32,1.81.95,2.52.63.71,1.39,1.07,2.27,1.07.93,0,1.74-.41,2.43-1.24.69-.82,1.03-1.63,1.03-2.43l-.42-24.32c-.06-1.31-.41-2.7-1.06-4.18-.65-1.48-1.45-2.5-2.41-3.07.28-.28.7-.71,1.27-1.28,1.86-2.22,2.79-4.98,2.79-8.28ZM485.56,453.11c0,1.76-.37,3.07-1.1,3.93-1.07,1.25-3.01,1.88-5.83,1.88h-1.27c-1.58-.06-2.9-.06-3.97,0v-22.53h7.86c2.87.8,4.31,2.87,4.31,6.23v10.5Z"/>
    </g>
  </g>
  <g id="_レイヤー_7" data-name="レイヤー_7">
    <g>
      <g>
        <polygon class="st5" points="380.79 418.97 529.1 270.66 377.21 270.66 228.89 418.97 380.79 418.97"/>
        <polygon class="st5" points="371.11 19.5 219.21 19.5 72.85 165.86 224.75 165.86 371.11 19.5"/>
        <polygon class="st5" points="423.78 19.5 286.29 156.99 277.43 165.86 172.63 270.66 113.8 329.48 24.32 418.97 176.22 418.97 216.99 378.19 324.53 270.66 429.32 165.86 575.68 19.5 423.78 19.5"/>
      </g>
      <path class="st5" d="M61.47,501.36c0-4.4-1.45-8.56-4.36-12.47-3.15-4.32-6.82-6.48-11.01-6.48h-16.82c-1.37,0-2.54.49-3.51,1.47s-1.45,2.16-1.45,3.55v88.17c0,1.31.48,2.45,1.45,3.42s2.14,1.47,3.51,1.47c1.29,0,2.42-.49,3.39-1.47.97-.98,1.45-2.12,1.45-3.42v-40.84c.65,0,3.23-.04,7.75-.12,7.02,0,12.26-2.12,15.73-6.36,2.66-3.18,3.99-7.13,3.99-11.86,0-.9-.04-1.71-.12-2.45v-12.6ZM51.55,514.2v2.2c0,2.37-.56,4.24-1.67,5.63-1.51,1.79-4.22,2.69-8.12,2.69h-7.64v-32.41h11.18c4.17,1.22,6.25,4.24,6.25,9.05v12.84Z"/>
      <path class="st5" d="M158.08,570.59h-19.61v-83.15c0-1.39-.48-2.57-1.45-3.55-.97-.98-2.1-1.47-3.39-1.47-1.37,0-2.54.49-3.51,1.47s-1.45,2.16-1.45,3.55v88.04c0,1.39.48,2.57,1.45,3.55s2.14,1.47,3.51,1.47h24.45c1.29,0,2.42-.49,3.39-1.47s1.45-2.16,1.45-3.55c0-1.3-.48-2.45-1.45-3.42s-2.1-1.47-3.39-1.47Z"/>
      <path class="st5" d="M256.15,486.67c-.4-2.77-1.94-4.2-4.6-4.28-2.74-.08-4.4,1.22-4.96,3.91l-17.67,87.92c-.24,1.39,0,2.63.73,3.73.73,1.1,1.73,1.81,3.03,2.14,1.37.24,2.6,0,3.69-.73,1.09-.73,1.79-1.79,2.12-3.18l1.94-9.54h17.07l1.21,9.54c.24,1.39.91,2.49,2,3.3,1.09.82,2.28,1.14,3.57.98,1.37-.24,2.46-.9,3.27-1.96.81-1.06,1.09-2.28.85-3.67l-12.23-88.17ZM242.35,556.86l8.11-40.48,5.57,40.48h-13.68Z"/>
      <path class="st5" d="M366.49,482.43c-2.42,0-3.95,1.14-4.6,3.42l-10.41,36.69-10.41-36.69c-.65-2.28-2.18-3.42-4.6-3.42-1.29,0-2.4.47-3.33,1.41-.93.94-1.39,2.06-1.39,3.36,0,.41.08.86.24,1.34l14.77,52.09v35.1c0,1.3.46,2.43,1.39,3.36.93.94,2.04,1.41,3.33,1.41s2.4-.47,3.33-1.41c.93-.94,1.39-2.06,1.39-3.36v-35.1c.16-.41,5.08-17.77,14.77-52.09.16-.41.24-.85.24-1.34,0-1.3-.47-2.42-1.39-3.36-.93-.94-2.04-1.41-3.33-1.41Z"/>
      <path class="st5" d="M465.64,492.33c1.37,0,2.54-.49,3.51-1.47s1.45-2.16,1.45-3.55c0-1.3-.48-2.45-1.45-3.42s-2.14-1.47-3.51-1.47h-22.75c-1.29,0-2.42.49-3.39,1.47s-1.45,2.12-1.45,3.42v88.29c0,1.31.48,2.45,1.45,3.42s2.1,1.47,3.39,1.47h22.51c1.37,0,2.54-.49,3.51-1.47s1.45-2.12,1.45-3.42c0-1.39-.48-2.57-1.45-3.55s-2.14-1.47-3.51-1.47h-17.55v-32.28h14.89c1.37,0,2.54-.49,3.51-1.47s1.45-2.12,1.45-3.42c0-1.39-.48-2.57-1.45-3.55s-2.14-1.47-3.51-1.47h-14.89v-36.07h17.79Z"/>
      <path class="st5" d="M575.68,516.3v-15.04c0-12.55-5.12-18.83-15.37-18.83h-16.82c-1.29,0-2.42.49-3.39,1.47-.97.98-1.45,2.13-1.45,3.43v88.14c0,1.39.48,2.58,1.45,3.56s2.1,1.47,3.39,1.47c1.37,0,2.54-.49,3.51-1.47.97-.98,1.45-2.17,1.45-3.57v-40.82c4.42,0,6.18-.04,5.28-.12,4.74.16,8.14,1.14,10.19,2.93.9.82,1.35,1.83,1.35,3.06l.61,34.85c0,1.39.45,2.59,1.36,3.61.9,1.02,1.99,1.53,3.25,1.53,1.34,0,2.5-.59,3.48-1.77.98-1.18,1.47-2.34,1.47-3.49l-.6-34.85c-.08-1.87-.59-3.87-1.51-5.99-.93-2.12-2.08-3.59-3.45-4.4.4-.41,1.01-1.02,1.82-1.83,2.66-3.18,3.99-7.13,3.99-11.86ZM565.88,516.3c0,2.53-.53,4.4-1.57,5.63-1.53,1.79-4.32,2.69-8.35,2.69h-1.82c-2.26-.08-4.16-.08-5.69,0v-32.28h11.26c4.12,1.14,6.17,4.12,6.17,8.93v15.04Z"/>
    </g>
  </g>
  <g id="_レイヤー_2" data-name="レイヤー_2" class="st3">
    <rect class="st4" width="600" height="600"/>
    <polygon class="st0" points="356.46 342.45 459.97 238.95 353.96 238.95 250.45 342.45 356.46 342.45"/>
    <polygon class="st0" points="349.71 63.67 243.7 63.67 141.56 165.81 247.57 165.81 349.71 63.67"/>
    <polygon class="st0" points="386.47 63.67 290.52 159.62 284.33 165.81 211.19 238.95 170.13 280 107.68 342.45 213.69 342.45 242.15 313.99 317.2 238.95 390.34 165.81 492.48 63.67 386.47 63.67"/>
    <path class="st0" d="M130.44,384.25h-18.69c-.94,0-1.73.33-2.37,1-.64.67-.96,1.44-.96,2.33,0,.94.32,1.74.96,2.41.64.66,1.42,1,2.37,1h14.12l-18.19,55.48c-.11.33-.17.66-.17,1,0,.94.32,1.74.96,2.41.64.67,1.42,1,2.37,1h18.52c.94,0,1.74-.33,2.41-1,.66-.66,1-1.47,1-2.41,0-.88-.33-1.66-1-2.33-.66-.66-1.47-1-2.41-1h-13.87l18.19-55.48c.11-.39.17-.75.17-1.08,0-.88-.33-1.66-1-2.33-.66-.66-1.47-1-2.41-1Z"/>
    <path class="st0" d="M197.96,390.98c.94,0,1.74-.33,2.41-1,.66-.67,1-1.47,1-2.41,0-.88-.33-1.66-1-2.33-.66-.66-1.47-1-2.41-1h-15.61c-.89,0-1.66.33-2.33,1-.67.67-1,1.44-1,2.33v59.96c0,.89.33,1.66,1,2.33.66.67,1.44,1,2.33,1h15.45c.94,0,1.74-.33,2.41-1,.66-.66,1-1.44,1-2.33,0-.94-.33-1.74-1-2.41-.66-.66-1.47-1-2.41-1h-12.04v-21.93h10.21c.94,0,1.74-.33,2.41-1,.66-.67,1-1.44,1-2.33,0-.94-.33-1.74-1-2.41-.67-.66-1.47-1-2.41-1h-10.21v-24.5h12.21Z"/>
    <path class="st0" d="M265.55,384.25h-15.7c-.89,0-1.66.33-2.33,1s-1,1.44-1,2.33v59.96c0,.89.33,1.66,1,2.33.66.67,1.44,1,2.33,1,.94,0,1.74-.33,2.41-1,.67-.66,1-1.44,1-2.33v-25.33h10.21c.94,0,1.74-.33,2.41-1,.66-.67,1-1.44,1-2.33,0-.94-.33-1.74-1-2.41-.66-.66-1.47-1-2.41-1h-10.21v-24.5h12.29c.89,0,1.66-.33,2.33-1,.66-.67,1-1.47,1-2.41,0-.88-.33-1.66-1-2.33-.66-.66-1.44-1-2.33-1Z"/>
    <path class="st0" d="M328.92,384.25h-11.54c-.89,0-1.66.33-2.33,1-.66.67-1,1.44-1,2.33v59.86c0,.94.33,1.75,1,2.42.66.67,1.44,1,2.33,1,.94,0,1.74-.33,2.41-1,.66-.67,1-1.47,1-2.42v-27.72c3.03,0,4.24-.03,3.62-.08,3.26.11,5.59.78,6.99,1.99.62.55.92,1.25.92,2.08l.42,23.67c0,.94.31,1.76.93,2.45.62.69,1.36,1.04,2.23,1.04.92,0,1.71-.4,2.39-1.2.68-.8,1.01-1.59,1.01-2.37l-.42-23.67c-.06-1.27-.4-2.63-1.04-4.07-.64-1.44-1.43-2.44-2.37-2.99.28-.28.69-.69,1.24-1.25,1.83-2.16,2.74-4.84,2.74-8.06v-10.21c0-8.53-3.52-12.79-10.55-12.79ZM332.74,407.26c0,1.72-.36,2.99-1.08,3.82-1.05,1.22-2.96,1.83-5.73,1.83h-1.25c-1.55-.05-2.85-.05-3.9,0v-21.93h7.72c2.82.78,4.23,2.8,4.23,6.06v10.21Z"/>
    <path class="st0" d="M403.39,387.14c-.28-1.88-1.33-2.85-3.16-2.91-1.88-.05-3.02.83-3.41,2.66l-12.13,59.71c-.17.94,0,1.79.5,2.53.5.75,1.19,1.23,2.08,1.45.94.17,1.79,0,2.53-.5.75-.5,1.23-1.22,1.45-2.16l1.33-6.48h11.71l.83,6.48c.17.94.62,1.69,1.37,2.24.75.55,1.56.77,2.45.66.94-.17,1.69-.61,2.24-1.33.55-.72.75-1.55.58-2.49l-8.39-59.88ZM393.92,434.82l5.56-27.49,3.82,27.49h-9.38Z"/>
    <path class="st0" d="M487.65,384.27c-1.99-.22-3.18.66-3.57,2.66l-10.22,45.26-10.21-45.26c-.44-1.99-1.66-2.88-3.65-2.66-1.99.22-2.99,1.33-2.99,3.32v59.71c0,.94.33,1.73,1,2.37.66.64,1.44.96,2.33.96.94,0,1.74-.32,2.41-.96.66-.64,1-1.42,1-2.37v-29.48l6.81,30.4c.39,1.77,1.5,2.66,3.32,2.66s2.85-.88,3.24-2.66l6.81-30.4v29.48c0,.94.33,1.73,1,2.37.66.64,1.47.96,2.41.96s1.73-.32,2.37-.96c.64-.64.95-1.42.95-2.37v-59.71c0-1.99-1-3.1-2.99-3.32Z"/>
    <path class="st5" d="M126.43,476.48c.94,0,1.74-.33,2.41-1s1-1.46,1-2.4c0-.88-.33-1.66-1-2.32-.66-.66-1.47-1-2.41-1h-15.59c-.89,0-1.66.33-2.32,1-.66.66-1,1.44-1,2.32v59.88c0,.88.33,1.66,1,2.32s1.44,1,2.32,1h15.43c.94,0,1.74-.33,2.41-1s1-1.44,1-2.32c0-.94-.33-1.74-1-2.41s-1.47-1-2.41-1h-12.03v-21.9h10.2c.94,0,1.74-.33,2.41-1,.66-.66,1-1.44,1-2.32,0-.94-.33-1.74-1-2.4-.66-.66-1.47-1-2.41-1h-10.2v-24.47h12.19Z"/>
    <path class="st5" d="M157.19,469.76c-.89,0-1.66.33-2.32,1-.66.66-1,1.44-1,2.32v38.15l-12.36-39.15c-.61-1.82-1.85-2.6-3.73-2.32-1.88.33-2.82,1.44-2.82,3.32v59.64c0,.94.33,1.73,1,2.36.66.64,1.44.95,2.32.95.94,0,1.74-.32,2.41-.95.66-.63,1-1.42,1-2.36v-37.91l12.36,39.15c.55,1.82,1.8,2.6,3.73,2.32,1.88-.33,2.82-1.44,2.82-3.32v-59.88c0-.88-.33-1.66-1-2.32-.66-.66-1.47-1-2.41-1Z"/>
    <path class="st5" d="M190.69,469.76h-21.65c-.89,0-1.66.33-2.32,1-.66.66-1,1.44-1,2.32,0,.94.33,1.74,1,2.4s1.44,1,2.32,1h7.22v56.48c0,.88.33,1.66,1,2.32s1.44,1,2.32,1c.94,0,1.74-.33,2.41-1,.66-.66,1-1.44,1-2.32v-56.48h7.71c.88,0,1.66-.33,2.32-1,.66-.66,1-1.46,1-2.4,0-.88-.33-1.66-1-2.32-.66-.66-1.44-1-2.32-1Z"/>
    <path class="st5" d="M218.06,476.48c.94,0,1.74-.33,2.41-1s1-1.46,1-2.4c0-.88-.33-1.66-1-2.32-.66-.66-1.47-1-2.41-1h-15.59c-.89,0-1.66.33-2.32,1-.66.66-1,1.44-1,2.32v59.88c0,.88.33,1.66,1,2.32s1.44,1,2.32,1h15.43c.94,0,1.74-.33,2.41-1s1-1.44,1-2.32c0-.94-.33-1.74-1-2.41s-1.47-1-2.41-1h-12.03v-21.9h10.2c.94,0,1.74-.33,2.41-1,.66-.66,1-1.44,1-2.32,0-.94-.33-1.74-1-2.4-.66-.66-1.47-1-2.41-1h-10.2v-24.47h12.19Z"/>
    <path class="st5" d="M241.44,469.76h-11.53c-.89,0-1.66.33-2.32,1-.66.67-1,1.44-1,2.33v59.78c0,.94.33,1.75,1,2.41.66.67,1.44,1,2.32,1,.94,0,1.74-.33,2.41-1,.66-.67,1-1.47,1-2.42v-27.68c3.03,0,4.23-.03,3.62-.08,3.25.11,5.58.78,6.98,1.99.62.55.92,1.24.92,2.07l.42,23.64c0,.94.31,1.76.93,2.45.62.69,1.36,1.04,2.22,1.04.92,0,1.71-.4,2.39-1.2.67-.8,1.01-1.59,1.01-2.36l-.41-23.64c-.06-1.27-.4-2.62-1.04-4.06-.64-1.44-1.42-2.43-2.36-2.99.28-.28.69-.69,1.24-1.24,1.83-2.16,2.74-4.84,2.74-8.05v-10.2c0-8.52-3.51-12.77-10.53-12.77ZM245.25,492.74c0,1.71-.36,2.99-1.08,3.82-1.05,1.22-2.96,1.82-5.72,1.82h-1.24c-1.55-.05-2.85-.05-3.9,0v-21.9h7.71c2.82.78,4.23,2.79,4.23,6.06v10.2Z"/>
    <path class="st5" d="M282.07,469.76h-21.65c-.89,0-1.66.33-2.32,1-.66.66-1,1.44-1,2.32,0,.94.33,1.74,1,2.4s1.44,1,2.32,1h7.22v56.48c0,.88.33,1.66,1,2.32s1.44,1,2.32,1c.94,0,1.74-.33,2.41-1s1-1.44,1-2.32v-56.48h7.71c.88,0,1.66-.33,2.32-1,.66-.66,1-1.46,1-2.4,0-.88-.33-1.66-1-2.32-.66-.66-1.44-1-2.32-1Z"/>
    <path class="st5" d="M305.24,472.66c-.28-1.88-1.33-2.85-3.15-2.9-1.88-.05-3.01.83-3.4,2.65l-12.11,59.64c-.17.94,0,1.78.5,2.53.5.75,1.19,1.23,2.07,1.45.94.17,1.78,0,2.53-.5.75-.5,1.23-1.22,1.45-2.16l1.33-6.47h11.69l.83,6.47c.17.94.62,1.69,1.37,2.24.75.55,1.56.77,2.45.66.94-.17,1.69-.61,2.24-1.33.55-.72.75-1.55.58-2.49l-8.38-59.8ZM295.79,520.27l5.56-27.45,3.82,27.45h-9.37Z"/>
    <path class="st5" d="M326.13,469.76c-.89,0-1.66.33-2.32,1-.66.66-1,1.44-1,2.32v59.8c0,.94.33,1.74,1,2.41s1.44,1,2.32,1c.94,0,1.74-.33,2.4-1s1-1.46,1-2.41v-59.8c0-.88-.33-1.66-1-2.32-.66-.66-1.47-1-2.4-1Z"/>
    <path class="st5" d="M356.89,469.76c-.88,0-1.66.33-2.32,1-.66.66-1,1.44-1,2.32v38.15l-12.36-39.15c-.61-1.82-1.85-2.6-3.73-2.32-1.88.33-2.82,1.44-2.82,3.32v59.64c0,.94.33,1.73,1,2.36.66.64,1.44.95,2.32.95.94,0,1.74-.32,2.4-.95.66-.63,1-1.42,1-2.36v-37.91l12.36,39.15c.55,1.82,1.8,2.6,3.73,2.32,1.88-.33,2.82-1.44,2.82-3.32v-59.88c0-.88-.33-1.66-1-2.32-.66-.66-1.47-1-2.41-1Z"/>
    <path class="st5" d="M396.03,469.76c-1.99-.22-3.18.66-3.57,2.65l-10.2,45.2-10.2-45.2c-.44-1.99-1.66-2.87-3.65-2.65-1.99.22-2.99,1.33-2.99,3.32v59.64c0,.94.33,1.73,1,2.36.66.64,1.44.95,2.32.95.94,0,1.74-.32,2.4-.95.66-.63,1-1.42,1-2.36v-29.44l6.8,30.36c.39,1.77,1.49,2.65,3.32,2.65s2.85-.88,3.24-2.65l6.8-30.36v29.44c0,.94.33,1.73,1,2.36.66.64,1.46.95,2.41.95s1.73-.32,2.36-.95c.64-.63.95-1.42.95-2.36v-59.64c0-1.99-1-3.1-2.99-3.32Z"/>
    <path class="st5" d="M423.06,476.48c.94,0,1.74-.33,2.4-1,.66-.66,1-1.46,1-2.4,0-.88-.33-1.66-1-2.32s-1.47-1-2.4-1h-15.59c-.89,0-1.66.33-2.32,1-.66.66-1,1.44-1,2.32v59.88c0,.88.33,1.66,1,2.32s1.44,1,2.32,1h15.43c.94,0,1.74-.33,2.41-1s1-1.44,1-2.32c0-.94-.33-1.74-1-2.41s-1.47-1-2.41-1h-12.03v-21.9h10.2c.94,0,1.74-.33,2.4-1s1-1.44,1-2.32c0-.94-.33-1.74-1-2.4s-1.47-1-2.4-1h-10.2v-24.47h12.19Z"/>
    <path class="st5" d="M453.82,469.76c-.88,0-1.66.33-2.32,1-.66.66-1,1.44-1,2.32v38.15l-12.36-39.15c-.61-1.82-1.85-2.6-3.73-2.32-1.88.33-2.82,1.44-2.82,3.32v59.64c0,.94.33,1.73,1,2.36.66.64,1.44.95,2.32.95.94,0,1.74-.32,2.4-.95.66-.63,1-1.42,1-2.36v-37.91l12.36,39.15c.55,1.82,1.8,2.6,3.73,2.32,1.88-.33,2.82-1.44,2.82-3.32v-59.88c0-.88-.33-1.66-1-2.32-.66-.66-1.47-1-2.41-1Z"/>
    <path class="st5" d="M489.65,470.76c-.66-.66-1.44-1-2.32-1h-21.65c-.89,0-1.66.33-2.32,1-.66.66-1,1.44-1,2.32,0,.94.33,1.74,1,2.4s1.44,1,2.32,1h7.22v56.48c0,.88.33,1.66,1,2.32s1.44,1,2.32,1c.94,0,1.74-.33,2.41-1,.66-.66,1-1.44,1-2.32v-56.48h7.71c.88,0,1.66-.33,2.32-1s1-1.46,1-2.4c0-.88-.33-1.66-1-2.32Z"/>
  </g>
  <g id="_レイヤー_3" data-name="レイヤー_3" class="st3">
    <g id="_レイヤー_4" data-name="レイヤー_4">
      <rect class="st5" x="-1" width="600" height="600"/>
    </g>
    <path class="st4" d="M481.38,174.48c15.35-15.35,15.35-40.23,0-55.57-15.2-15.21-39.76-15.34-55.14-.41l-.02-.02L115.98,428.71h.01c-15.35,15.36-15.35,40.24,0,55.58,15.35,15.35,40.23,15.35,55.57,0,.16-.16.31-.32.46-.49L480.9,174.93c.16-.15.32-.3.47-.45Z"/>
    <path class="st4" d="M307.99,107.4h-164.22c-21.7,0-39.3,17.59-39.3,39.3s17.59,39.3,39.3,39.3h164.22c21.7,0,39.29-17.59,39.29-39.3s-17.59-39.3-39.29-39.3Z"/>
    <path class="st4" d="M453.59,417.21h-164.22c-21.7,0-39.3,17.59-39.3,39.3s17.59,39.3,39.3,39.3h164.22c21.7,0,39.3-17.59,39.3-39.3s-17.59-39.3-39.3-39.3Z"/>
  </g>
  <g id="_レイヤー_6" data-name="レイヤー_6" class="st3">
    <rect class="st5" x="0" width="600" height="600"/>
    <g>
      <path class="st4" d="M482.69,113.48c15.35-15.35,15.35-40.23,0-55.57-15.2-15.21-39.76-15.34-55.14-.41l-.02-.02L117.29,367.71h.01c-15.35,15.36-15.35,40.24,0,55.58,15.35,15.35,40.23,15.35,55.57,0,.16-.16.31-.32.46-.49L482.22,113.93c.16-.15.32-.3.47-.45Z"/>
      <path class="st4" d="M309.31,46.4h-164.22c-21.7,0-39.3,17.59-39.3,39.3s17.59,39.3,39.3,39.3h164.22c21.7,0,39.29-17.59,39.29-39.3s-17.59-39.3-39.29-39.3Z"/>
      <path class="st4" d="M454.91,356.21h-164.22c-21.7,0-39.3,17.59-39.3,39.3s17.59,39.3,39.3,39.3h164.22c21.7,0,39.3-17.59,39.3-39.3s-17.59-39.3-39.3-39.3Z"/>
    </g>
    <g>
      <path class="st4" d="M131.36,483.93h-18.69c-.94,0-1.73.33-2.37,1-.64.67-.96,1.44-.96,2.33,0,.94.32,1.74.96,2.41.64.66,1.42,1,2.37,1h14.12l-18.19,55.48c-.11.33-.17.66-.17,1,0,.94.32,1.74.96,2.41.64.67,1.42,1,2.37,1h18.52c.94,0,1.74-.33,2.41-1,.66-.66,1-1.47,1-2.41,0-.88-.33-1.66-1-2.33-.66-.66-1.47-1-2.41-1h-13.87l18.19-55.48c.11-.39.17-.75.17-1.08,0-.88-.33-1.66-1-2.33-.66-.66-1.47-1-2.41-1Z"/>
      <path class="st4" d="M198.88,490.66c.94,0,1.74-.33,2.41-1,.66-.66,1-1.47,1-2.41,0-.88-.33-1.66-1-2.33-.66-.66-1.47-1-2.41-1h-15.61c-.89,0-1.66.33-2.33,1-.67.67-1,1.44-1,2.33v59.96c0,.89.33,1.66,1,2.33.66.67,1.44,1,2.33,1h15.45c.94,0,1.74-.33,2.41-1,.66-.66,1-1.44,1-2.33,0-.94-.33-1.74-1-2.41-.66-.66-1.47-1-2.41-1h-12.04v-21.93h10.21c.94,0,1.74-.33,2.41-1,.66-.67,1-1.44,1-2.33,0-.94-.33-1.74-1-2.41-.67-.66-1.47-1-2.41-1h-10.21v-24.5h12.21Z"/>
      <path class="st4" d="M266.47,483.93h-15.7c-.89,0-1.66.33-2.33,1-.66.67-1,1.44-1,2.33v59.96c0,.89.33,1.66,1,2.33.66.67,1.44,1,2.33,1,.94,0,1.74-.33,2.41-1,.66-.66,1-1.44,1-2.33v-25.33h10.21c.94,0,1.74-.33,2.41-1,.66-.67,1-1.44,1-2.33,0-.94-.33-1.74-1-2.41-.67-.66-1.47-1-2.41-1h-10.21v-24.5h12.29c.89,0,1.66-.33,2.33-1,.66-.66,1-1.47,1-2.41,0-.88-.33-1.66-1-2.33-.66-.66-1.44-1-2.33-1Z"/>
      <path class="st4" d="M329.83,483.93h-11.54c-.89,0-1.66.33-2.33,1-.66.67-1,1.44-1,2.33v59.86c0,.94.33,1.75,1,2.42.66.67,1.44,1,2.33,1,.94,0,1.74-.33,2.41-1,.66-.67,1-1.47,1-2.42v-27.72c3.03,0,4.24-.03,3.62-.08,3.26.11,5.59.78,6.99,1.99.62.55.92,1.25.92,2.08l.42,23.67c0,.94.31,1.76.93,2.45.62.69,1.36,1.04,2.23,1.04.92,0,1.71-.4,2.39-1.2.68-.8,1.01-1.59,1.01-2.37l-.42-23.67c-.06-1.27-.4-2.63-1.04-4.07-.64-1.44-1.43-2.44-2.37-2.99.28-.28.69-.69,1.24-1.25,1.83-2.16,2.74-4.84,2.74-8.06v-10.21c0-8.53-3.52-12.79-10.55-12.79ZM333.65,506.94c0,1.72-.36,2.99-1.08,3.82-1.05,1.22-2.96,1.83-5.73,1.83h-1.25c-1.55-.05-2.85-.05-3.9,0v-21.93h7.72c2.82.78,4.23,2.8,4.23,6.06v10.21Z"/>
      <path class="st4" d="M404.3,486.82c-.28-1.88-1.33-2.85-3.16-2.91-1.88-.05-3.02.83-3.41,2.66l-12.13,59.71c-.17.94,0,1.79.5,2.53.5.75,1.19,1.23,2.08,1.45.94.17,1.79,0,2.53-.5.75-.5,1.23-1.22,1.45-2.16l1.33-6.48h11.71l.83,6.48c.17.94.62,1.69,1.37,2.24.75.55,1.56.77,2.45.66.94-.17,1.69-.61,2.24-1.33.55-.72.75-1.55.58-2.49l-8.39-59.88ZM394.84,534.5l5.56-27.49,3.82,27.49h-9.38Z"/>
      <path class="st4" d="M488.57,483.95c-1.99-.22-3.18.66-3.57,2.66l-10.22,45.26-10.21-45.26c-.44-1.99-1.66-2.88-3.65-2.66-1.99.22-2.99,1.33-2.99,3.32v59.71c0,.94.33,1.73,1,2.37.66.64,1.44.96,2.33.96.94,0,1.74-.32,2.41-.96.66-.64,1-1.42,1-2.37v-29.48l6.81,30.4c.39,1.77,1.5,2.66,3.32,2.66s2.85-.88,3.24-2.66l6.81-30.4v29.48c0,.94.33,1.73,1,2.37.66.64,1.47.96,2.41.96s1.73-.32,2.37-.96c.64-.64.96-1.42.96-2.37v-59.71c0-1.99-1-3.1-2.99-3.32Z"/>
    </g>
  </g>
</svg>